<mxfile host="app.diagrams.net" modified="2021-11-23T19:41:37.076Z" agent="5.0 (X11; Linux x86_64) AppleWebKit/537.36 (KHTML, like Gecko) Chrome/95.0.4638.54 Safari/537.36" etag="GHXpKBrZ6jiA97IWn2Rv" version="15.8.3" type="github" pages="3">
  <diagram id="A_BF2jHu5hyqi3NlDUuP" name="Arquitectura general">
    <mxGraphModel dx="1182" dy="626" grid="1" gridSize="10" guides="1" tooltips="1" connect="1" arrows="1" fold="1" page="1" pageScale="1" pageWidth="850" pageHeight="1100" math="0" shadow="0">
      <root>
        <mxCell id="0" />
        <mxCell id="1" parent="0" />
        <mxCell id="qsJhHHs3nWtLq040f9TH-1" value="Servicio de indexado" style="html=1;dropTarget=0;" parent="1" vertex="1">
          <mxGeometry x="240" y="160" width="200" height="80" as="geometry" />
        </mxCell>
        <mxCell id="qsJhHHs3nWtLq040f9TH-2" value="" style="shape=module;jettyWidth=8;jettyHeight=4;" parent="qsJhHHs3nWtLq040f9TH-1" vertex="1">
          <mxGeometry x="1" width="20" height="20" relative="1" as="geometry">
            <mxPoint x="-27" y="7" as="offset" />
          </mxGeometry>
        </mxCell>
        <mxCell id="qsJhHHs3nWtLq040f9TH-3" value="Servicio de almacenamiento&lt;br&gt;local a la institucion #1" style="html=1;dropTarget=0;" parent="1" vertex="1">
          <mxGeometry x="600" y="40" width="200" height="80" as="geometry" />
        </mxCell>
        <mxCell id="qsJhHHs3nWtLq040f9TH-4" value="" style="shape=module;jettyWidth=8;jettyHeight=4;" parent="qsJhHHs3nWtLq040f9TH-3" vertex="1">
          <mxGeometry x="1" width="20" height="20" relative="1" as="geometry">
            <mxPoint x="-27" y="7" as="offset" />
          </mxGeometry>
        </mxCell>
        <mxCell id="qsJhHHs3nWtLq040f9TH-6" value="Servicio de almacenamiento&lt;br&gt;local a la institucion #2" style="html=1;dropTarget=0;" parent="1" vertex="1">
          <mxGeometry x="600" y="160" width="200" height="80" as="geometry" />
        </mxCell>
        <mxCell id="qsJhHHs3nWtLq040f9TH-7" value="" style="shape=module;jettyWidth=8;jettyHeight=4;" parent="qsJhHHs3nWtLq040f9TH-6" vertex="1">
          <mxGeometry x="1" width="20" height="20" relative="1" as="geometry">
            <mxPoint x="-27" y="7" as="offset" />
          </mxGeometry>
        </mxCell>
        <mxCell id="qsJhHHs3nWtLq040f9TH-8" value="Servicio de almacenamiento&lt;br&gt;local a la institucion #N" style="html=1;dropTarget=0;" parent="1" vertex="1">
          <mxGeometry x="600" y="280" width="200" height="80" as="geometry" />
        </mxCell>
        <mxCell id="qsJhHHs3nWtLq040f9TH-9" value="" style="shape=module;jettyWidth=8;jettyHeight=4;" parent="qsJhHHs3nWtLq040f9TH-8" vertex="1">
          <mxGeometry x="1" width="20" height="20" relative="1" as="geometry">
            <mxPoint x="-27" y="7" as="offset" />
          </mxGeometry>
        </mxCell>
        <mxCell id="qsJhHHs3nWtLq040f9TH-10" value="" style="endArrow=block;startArrow=block;endFill=1;startFill=1;html=1;entryX=0;entryY=0.25;entryDx=0;entryDy=0;exitX=1;exitY=0.25;exitDx=0;exitDy=0;" parent="1" source="qsJhHHs3nWtLq040f9TH-1" target="qsJhHHs3nWtLq040f9TH-3" edge="1">
          <mxGeometry width="160" relative="1" as="geometry">
            <mxPoint x="360" y="290" as="sourcePoint" />
            <mxPoint x="520" y="290" as="targetPoint" />
          </mxGeometry>
        </mxCell>
        <mxCell id="qsJhHHs3nWtLq040f9TH-11" value="" style="endArrow=block;startArrow=block;endFill=1;startFill=1;html=1;exitX=1;exitY=0.5;exitDx=0;exitDy=0;" parent="1" source="qsJhHHs3nWtLq040f9TH-1" target="qsJhHHs3nWtLq040f9TH-6" edge="1">
          <mxGeometry width="160" relative="1" as="geometry">
            <mxPoint x="450" y="190" as="sourcePoint" />
            <mxPoint x="610" y="90" as="targetPoint" />
          </mxGeometry>
        </mxCell>
        <mxCell id="qsJhHHs3nWtLq040f9TH-12" value="" style="endArrow=block;startArrow=block;endFill=1;startFill=1;html=1;entryX=0;entryY=0.5;entryDx=0;entryDy=0;exitX=1;exitY=0.75;exitDx=0;exitDy=0;" parent="1" source="qsJhHHs3nWtLq040f9TH-1" target="qsJhHHs3nWtLq040f9TH-8" edge="1">
          <mxGeometry width="160" relative="1" as="geometry">
            <mxPoint x="460" y="200" as="sourcePoint" />
            <mxPoint x="620" y="100" as="targetPoint" />
          </mxGeometry>
        </mxCell>
        <mxCell id="qsJhHHs3nWtLq040f9TH-14" value="Cliente" style="html=1;dropTarget=0;" parent="1" vertex="1">
          <mxGeometry x="10" y="20" width="120" height="80" as="geometry" />
        </mxCell>
        <mxCell id="qsJhHHs3nWtLq040f9TH-15" value="" style="shape=module;jettyWidth=8;jettyHeight=4;" parent="qsJhHHs3nWtLq040f9TH-14" vertex="1">
          <mxGeometry x="1" width="20" height="20" relative="1" as="geometry">
            <mxPoint x="-27" y="7" as="offset" />
          </mxGeometry>
        </mxCell>
        <mxCell id="qsJhHHs3nWtLq040f9TH-16" value="" style="endArrow=block;endFill=1;html=1;edgeStyle=orthogonalEdgeStyle;align=left;verticalAlign=top;exitX=1;exitY=0.25;exitDx=0;exitDy=0;" parent="1" source="qsJhHHs3nWtLq040f9TH-14" target="qsJhHHs3nWtLq040f9TH-1" edge="1">
          <mxGeometry x="-1" relative="1" as="geometry">
            <mxPoint x="330" y="260" as="sourcePoint" />
            <mxPoint x="490" y="260" as="targetPoint" />
          </mxGeometry>
        </mxCell>
        <mxCell id="qsJhHHs3nWtLq040f9TH-19" value="" style="endArrow=block;endFill=1;html=1;edgeStyle=orthogonalEdgeStyle;align=left;verticalAlign=top;entryX=0;entryY=0.5;entryDx=0;entryDy=0;exitX=1;exitY=0.75;exitDx=0;exitDy=0;" parent="1" source="qsJhHHs3nWtLq040f9TH-14" target="qsJhHHs3nWtLq040f9TH-3" edge="1">
          <mxGeometry x="-1" relative="1" as="geometry">
            <mxPoint x="130" y="100" as="sourcePoint" />
            <mxPoint x="300" y="310" as="targetPoint" />
            <Array as="points" />
          </mxGeometry>
        </mxCell>
        <mxCell id="qsJhHHs3nWtLq040f9TH-21" value="" style="html=1;verticalAlign=bottom;endArrow=open;dashed=1;endSize=8;exitX=0.25;exitY=0;exitDx=0;exitDy=0;entryX=1;entryY=0.5;entryDx=0;entryDy=0;" parent="1" source="qsJhHHs3nWtLq040f9TH-1" target="qsJhHHs3nWtLq040f9TH-14" edge="1">
          <mxGeometry relative="1" as="geometry">
            <mxPoint x="170" y="310" as="sourcePoint" />
            <mxPoint x="60" y="440" as="targetPoint" />
            <Array as="points">
              <mxPoint x="290" y="60" />
              <mxPoint x="190" y="60" />
            </Array>
          </mxGeometry>
        </mxCell>
        <mxCell id="95OsCOxDVB-KSKaRygbg-6" value="" style="group" parent="1" vertex="1" connectable="0">
          <mxGeometry x="30" y="260" width="300" height="130" as="geometry" />
        </mxCell>
        <mxCell id="95OsCOxDVB-KSKaRygbg-9" value="" style="group" parent="95OsCOxDVB-KSKaRygbg-6" vertex="1" connectable="0">
          <mxGeometry width="300" height="130" as="geometry" />
        </mxCell>
        <mxCell id="95OsCOxDVB-KSKaRygbg-5" value="" style="rounded=0;whiteSpace=wrap;html=1;" parent="95OsCOxDVB-KSKaRygbg-9" vertex="1">
          <mxGeometry width="300" height="130" as="geometry" />
        </mxCell>
        <mxCell id="qsJhHHs3nWtLq040f9TH-13" value="" style="endArrow=block;startArrow=block;endFill=1;startFill=1;html=1;entryX=0;entryY=0.5;entryDx=0;entryDy=0;" parent="95OsCOxDVB-KSKaRygbg-9" edge="1">
          <mxGeometry width="160" relative="1" as="geometry">
            <mxPoint x="10" y="30" as="sourcePoint" />
            <mxPoint x="90" y="30" as="targetPoint" />
          </mxGeometry>
        </mxCell>
        <mxCell id="qsJhHHs3nWtLq040f9TH-18" value="" style="endArrow=block;endFill=1;html=1;edgeStyle=orthogonalEdgeStyle;align=left;verticalAlign=top;exitX=1;exitY=0.5;exitDx=0;exitDy=0;" parent="95OsCOxDVB-KSKaRygbg-9" edge="1">
          <mxGeometry x="-1" relative="1" as="geometry">
            <mxPoint x="10" y="60" as="sourcePoint" />
            <mxPoint x="90" y="60" as="targetPoint" />
          </mxGeometry>
        </mxCell>
        <mxCell id="qsJhHHs3nWtLq040f9TH-20" value="" style="html=1;verticalAlign=bottom;endArrow=open;dashed=1;endSize=8;" parent="95OsCOxDVB-KSKaRygbg-9" edge="1">
          <mxGeometry relative="1" as="geometry">
            <mxPoint x="90" y="90" as="sourcePoint" />
            <mxPoint x="10" y="90" as="targetPoint" />
          </mxGeometry>
        </mxCell>
        <mxCell id="95OsCOxDVB-KSKaRygbg-2" value="Respuesta" style="text;html=1;strokeColor=none;fillColor=none;align=center;verticalAlign=middle;whiteSpace=wrap;rounded=0;" parent="95OsCOxDVB-KSKaRygbg-9" vertex="1">
          <mxGeometry x="100" y="75" width="70" height="30" as="geometry" />
        </mxCell>
        <mxCell id="95OsCOxDVB-KSKaRygbg-3" value="Vinculo permanente / intercambio bidireccional de informacion" style="text;html=1;strokeColor=none;fillColor=none;align=center;verticalAlign=middle;whiteSpace=wrap;rounded=0;" parent="95OsCOxDVB-KSKaRygbg-9" vertex="1">
          <mxGeometry x="100" y="15" width="200" height="30" as="geometry" />
        </mxCell>
        <mxCell id="95OsCOxDVB-KSKaRygbg-1" value="Solicitud&amp;nbsp; / Consulta" style="text;html=1;strokeColor=none;fillColor=none;align=center;verticalAlign=middle;whiteSpace=wrap;rounded=0;" parent="95OsCOxDVB-KSKaRygbg-9" vertex="1">
          <mxGeometry x="100" y="45" width="120" height="30" as="geometry" />
        </mxCell>
        <mxCell id="wasq51B5xfiVDCRSifoh-3" value="" style="html=1;verticalAlign=bottom;endArrow=open;dashed=1;endSize=8;exitX=0;exitY=0.75;exitDx=0;exitDy=0;entryX=1;entryY=1;entryDx=0;entryDy=0;" edge="1" parent="1" source="qsJhHHs3nWtLq040f9TH-3" target="qsJhHHs3nWtLq040f9TH-14">
          <mxGeometry relative="1" as="geometry">
            <mxPoint x="500" y="600" as="sourcePoint" />
            <mxPoint x="340" y="500" as="targetPoint" />
            <Array as="points">
              <mxPoint x="500" y="100" />
            </Array>
          </mxGeometry>
        </mxCell>
      </root>
    </mxGraphModel>
  </diagram>
  <diagram id="SNOwGfjVKdX_Clfok7DM" name="Servicio de indexado">
    <mxGraphModel dx="1182" dy="626" grid="1" gridSize="10" guides="1" tooltips="1" connect="1" arrows="1" fold="1" page="1" pageScale="1" pageWidth="850" pageHeight="1100" math="0" shadow="0">
      <root>
        <mxCell id="1TzT7ke-ufF_Ez5-miPN-0" />
        <mxCell id="1TzT7ke-ufF_Ez5-miPN-1" parent="1TzT7ke-ufF_Ez5-miPN-0" />
        <mxCell id="IiKJx6P0Wg2leFoSORLF-1" value="&lt;p style=&quot;margin: 0px ; margin-top: 6px ; text-align: center&quot;&gt;&lt;b&gt;Interfaz para clientes&lt;/b&gt;&lt;/p&gt;&lt;hr&gt;&lt;p style=&quot;margin: 0px ; margin-left: 8px&quot;&gt;+ Identificarse&lt;/p&gt;&lt;p style=&quot;margin: 0px ; margin-left: 8px&quot;&gt;+ Asociar institucion&lt;/p&gt;&lt;p style=&quot;margin: 0px ; margin-left: 8px&quot;&gt;+ Desasociar institucion&lt;/p&gt;&lt;p style=&quot;margin: 0px ; margin-left: 8px&quot;&gt;+ Listar instituciones asociadas disponibles&lt;/p&gt;&lt;p style=&quot;margin: 0px ; margin-left: 8px&quot;&gt;+ Listar archivos para un paciente&lt;/p&gt;&lt;p style=&quot;margin: 0px ; margin-left: 8px&quot;&gt;+ Listar archivos en una ruta&lt;/p&gt;&lt;p style=&quot;margin: 0px ; margin-left: 8px&quot;&gt;+ Buscar archivo&lt;br&gt;+ Modificar mapeo&lt;/p&gt;&lt;p style=&quot;margin: 0px ; margin-left: 8px&quot;&gt;+ Sincronizar&amp;nbsp;&lt;/p&gt;" style="align=left;overflow=fill;html=1;dropTarget=0;" vertex="1" parent="1TzT7ke-ufF_Ez5-miPN-1">
          <mxGeometry x="40" y="40" width="240" height="170" as="geometry" />
        </mxCell>
        <mxCell id="IiKJx6P0Wg2leFoSORLF-2" value="" style="shape=component;jettyWidth=8;jettyHeight=4;" vertex="1" parent="IiKJx6P0Wg2leFoSORLF-1">
          <mxGeometry x="1" width="20" height="20" relative="1" as="geometry">
            <mxPoint x="-24" y="4" as="offset" />
          </mxGeometry>
        </mxCell>
        <mxCell id="IiKJx6P0Wg2leFoSORLF-3" value="&lt;p style=&quot;margin: 0px ; margin-top: 6px ; text-align: center&quot;&gt;&lt;b&gt;Interfaz para instituciones&lt;/b&gt;&lt;/p&gt;&lt;hr&gt;&lt;p style=&quot;margin: 0px ; margin-left: 8px&quot;&gt;+ Registrarse&lt;/p&gt;&lt;p style=&quot;margin: 0px ; margin-left: 8px&quot;&gt;+ Desregistrarse&lt;/p&gt;&lt;p style=&quot;margin: 0px ; margin-left: 8px&quot;&gt;&lt;br&gt;&lt;/p&gt;" style="align=left;overflow=fill;html=1;dropTarget=0;" vertex="1" parent="1TzT7ke-ufF_Ez5-miPN-1">
          <mxGeometry x="560" y="240" width="240" height="70" as="geometry" />
        </mxCell>
        <mxCell id="IiKJx6P0Wg2leFoSORLF-4" value="" style="shape=component;jettyWidth=8;jettyHeight=4;" vertex="1" parent="IiKJx6P0Wg2leFoSORLF-3">
          <mxGeometry x="1" width="20" height="20" relative="1" as="geometry">
            <mxPoint x="-24" y="4" as="offset" />
          </mxGeometry>
        </mxCell>
        <mxCell id="IiKJx6P0Wg2leFoSORLF-10" value="Almacenamiento&lt;br&gt;persistente&lt;br&gt;mapeos" style="shape=cylinder3;whiteSpace=wrap;html=1;boundedLbl=1;backgroundOutline=1;size=15;" vertex="1" parent="1TzT7ke-ufF_Ez5-miPN-1">
          <mxGeometry x="250" y="430" width="100" height="130" as="geometry" />
        </mxCell>
        <mxCell id="IiKJx6P0Wg2leFoSORLF-11" value="&lt;p style=&quot;margin: 0px ; margin-top: 6px ; text-align: center&quot;&gt;&lt;b&gt;Traductor de rutas&lt;/b&gt;&lt;/p&gt;&lt;hr&gt;&lt;p style=&quot;margin: 0px ; margin-left: 8px&quot;&gt;+ Listar(consulta)&lt;br&gt;+ ObtenerEnlace(id)&lt;/p&gt;" style="align=left;overflow=fill;html=1;dropTarget=0;" vertex="1" parent="1TzT7ke-ufF_Ez5-miPN-1">
          <mxGeometry x="220" y="320" width="180" height="70" as="geometry" />
        </mxCell>
        <mxCell id="IiKJx6P0Wg2leFoSORLF-12" value="" style="shape=component;jettyWidth=8;jettyHeight=4;" vertex="1" parent="IiKJx6P0Wg2leFoSORLF-11">
          <mxGeometry x="1" width="20" height="20" relative="1" as="geometry">
            <mxPoint x="-24" y="4" as="offset" />
          </mxGeometry>
        </mxCell>
        <mxCell id="IiKJx6P0Wg2leFoSORLF-13" value="&lt;p style=&quot;margin: 0px ; margin-top: 6px ; text-align: center&quot;&gt;&lt;b&gt;Manejo de sesiones&lt;/b&gt;&lt;/p&gt;&lt;hr&gt;&lt;p style=&quot;margin: 0px ; margin-left: 8px&quot;&gt;+ Registrar usuario&lt;br&gt;+ Autenticar&lt;/p&gt;" style="align=left;overflow=fill;html=1;dropTarget=0;" vertex="1" parent="1TzT7ke-ufF_Ez5-miPN-1">
          <mxGeometry x="360" y="40" width="180" height="70" as="geometry" />
        </mxCell>
        <mxCell id="IiKJx6P0Wg2leFoSORLF-14" value="" style="shape=component;jettyWidth=8;jettyHeight=4;" vertex="1" parent="IiKJx6P0Wg2leFoSORLF-13">
          <mxGeometry x="1" width="20" height="20" relative="1" as="geometry">
            <mxPoint x="-24" y="4" as="offset" />
          </mxGeometry>
        </mxCell>
        <mxCell id="IiKJx6P0Wg2leFoSORLF-15" value="Almacenamiento de usuarios y servicios asociados" style="shape=cylinder3;whiteSpace=wrap;html=1;boundedLbl=1;backgroundOutline=1;size=15;" vertex="1" parent="1TzT7ke-ufF_Ez5-miPN-1">
          <mxGeometry x="620" y="35" width="100" height="130" as="geometry" />
        </mxCell>
        <mxCell id="SeKkZbWWXxbI91EYwFxZ-0" value="" style="group" vertex="1" connectable="0" parent="1TzT7ke-ufF_Ez5-miPN-1">
          <mxGeometry x="40" y="650" width="300" height="130" as="geometry" />
        </mxCell>
        <mxCell id="SeKkZbWWXxbI91EYwFxZ-1" value="" style="group" vertex="1" connectable="0" parent="SeKkZbWWXxbI91EYwFxZ-0">
          <mxGeometry width="300" height="130" as="geometry" />
        </mxCell>
        <mxCell id="SeKkZbWWXxbI91EYwFxZ-2" value="" style="rounded=0;whiteSpace=wrap;html=1;" vertex="1" parent="SeKkZbWWXxbI91EYwFxZ-1">
          <mxGeometry width="300" height="130" as="geometry" />
        </mxCell>
        <mxCell id="SeKkZbWWXxbI91EYwFxZ-3" value="" style="endArrow=block;startArrow=block;endFill=1;startFill=1;html=1;entryX=0;entryY=0.5;entryDx=0;entryDy=0;" edge="1" parent="SeKkZbWWXxbI91EYwFxZ-1">
          <mxGeometry width="160" relative="1" as="geometry">
            <mxPoint x="10" y="30" as="sourcePoint" />
            <mxPoint x="90" y="30" as="targetPoint" />
          </mxGeometry>
        </mxCell>
        <mxCell id="SeKkZbWWXxbI91EYwFxZ-4" value="" style="endArrow=block;endFill=1;html=1;edgeStyle=orthogonalEdgeStyle;align=left;verticalAlign=top;exitX=1;exitY=0.5;exitDx=0;exitDy=0;" edge="1" parent="SeKkZbWWXxbI91EYwFxZ-1">
          <mxGeometry x="-1" relative="1" as="geometry">
            <mxPoint x="10" y="60" as="sourcePoint" />
            <mxPoint x="90" y="60" as="targetPoint" />
          </mxGeometry>
        </mxCell>
        <mxCell id="SeKkZbWWXxbI91EYwFxZ-5" value="" style="html=1;verticalAlign=bottom;endArrow=open;dashed=1;endSize=8;" edge="1" parent="SeKkZbWWXxbI91EYwFxZ-1">
          <mxGeometry relative="1" as="geometry">
            <mxPoint x="90" y="90" as="sourcePoint" />
            <mxPoint x="10" y="90" as="targetPoint" />
          </mxGeometry>
        </mxCell>
        <mxCell id="SeKkZbWWXxbI91EYwFxZ-6" value="Respuesta" style="text;html=1;strokeColor=none;fillColor=none;align=center;verticalAlign=middle;whiteSpace=wrap;rounded=0;" vertex="1" parent="SeKkZbWWXxbI91EYwFxZ-1">
          <mxGeometry x="100" y="75" width="70" height="30" as="geometry" />
        </mxCell>
        <mxCell id="SeKkZbWWXxbI91EYwFxZ-7" value="Vinculo permanente / intercambio bidireccional de informacion" style="text;html=1;strokeColor=none;fillColor=none;align=center;verticalAlign=middle;whiteSpace=wrap;rounded=0;" vertex="1" parent="SeKkZbWWXxbI91EYwFxZ-1">
          <mxGeometry x="100" y="15" width="200" height="30" as="geometry" />
        </mxCell>
        <mxCell id="SeKkZbWWXxbI91EYwFxZ-8" value="Solicitud&amp;nbsp; / Consulta" style="text;html=1;strokeColor=none;fillColor=none;align=center;verticalAlign=middle;whiteSpace=wrap;rounded=0;" vertex="1" parent="SeKkZbWWXxbI91EYwFxZ-1">
          <mxGeometry x="100" y="45" width="120" height="30" as="geometry" />
        </mxCell>
        <mxCell id="SeKkZbWWXxbI91EYwFxZ-9" value="" style="endArrow=classic;html=1;rounded=0;exitX=1;exitY=0.25;exitDx=0;exitDy=0;entryX=0;entryY=0.5;entryDx=0;entryDy=0;" edge="1" parent="1TzT7ke-ufF_Ez5-miPN-1" source="IiKJx6P0Wg2leFoSORLF-1" target="IiKJx6P0Wg2leFoSORLF-13">
          <mxGeometry width="50" height="50" relative="1" as="geometry">
            <mxPoint x="60" y="370" as="sourcePoint" />
            <mxPoint x="110" y="320" as="targetPoint" />
          </mxGeometry>
        </mxCell>
        <mxCell id="SeKkZbWWXxbI91EYwFxZ-10" value="" style="endArrow=classic;html=1;rounded=0;entryX=0;entryY=0;entryDx=0;entryDy=40;entryPerimeter=0;" edge="1" parent="1TzT7ke-ufF_Ez5-miPN-1" target="IiKJx6P0Wg2leFoSORLF-15">
          <mxGeometry width="50" height="50" relative="1" as="geometry">
            <mxPoint x="540" y="75" as="sourcePoint" />
            <mxPoint x="540" y="170" as="targetPoint" />
          </mxGeometry>
        </mxCell>
        <mxCell id="x5sgVRGJgbnu1a9LC95m-0" value="" style="html=1;verticalAlign=bottom;endArrow=open;dashed=1;endSize=8;exitX=-0.02;exitY=0.454;exitDx=0;exitDy=0;entryX=1;entryY=0.75;entryDx=0;entryDy=0;exitPerimeter=0;" edge="1" parent="1TzT7ke-ufF_Ez5-miPN-1" source="IiKJx6P0Wg2leFoSORLF-15" target="IiKJx6P0Wg2leFoSORLF-13">
          <mxGeometry relative="1" as="geometry">
            <mxPoint x="290" y="160" as="sourcePoint" />
            <mxPoint x="130" y="60" as="targetPoint" />
            <Array as="points" />
          </mxGeometry>
        </mxCell>
        <mxCell id="x5sgVRGJgbnu1a9LC95m-1" value="" style="html=1;verticalAlign=bottom;endArrow=open;dashed=1;endSize=8;exitX=0;exitY=1;exitDx=0;exitDy=0;" edge="1" parent="1TzT7ke-ufF_Ez5-miPN-1" source="IiKJx6P0Wg2leFoSORLF-13" target="IiKJx6P0Wg2leFoSORLF-1">
          <mxGeometry relative="1" as="geometry">
            <mxPoint x="368" y="151.51999999999998" as="sourcePoint" />
            <mxPoint x="289.9999999999998" y="150" as="targetPoint" />
            <Array as="points" />
          </mxGeometry>
        </mxCell>
        <mxCell id="x5sgVRGJgbnu1a9LC95m-2" value="" style="endArrow=classic;html=1;rounded=0;exitX=0.75;exitY=1;exitDx=0;exitDy=0;entryX=0.25;entryY=0;entryDx=0;entryDy=0;" edge="1" parent="1TzT7ke-ufF_Ez5-miPN-1" source="IiKJx6P0Wg2leFoSORLF-1" target="IiKJx6P0Wg2leFoSORLF-11">
          <mxGeometry width="50" height="50" relative="1" as="geometry">
            <mxPoint x="280" y="250" as="sourcePoint" />
            <mxPoint x="360" y="250" as="targetPoint" />
          </mxGeometry>
        </mxCell>
        <mxCell id="x5sgVRGJgbnu1a9LC95m-7" value="" style="html=1;verticalAlign=bottom;endArrow=open;dashed=1;endSize=8;exitX=0.5;exitY=0;exitDx=0;exitDy=0;entryX=1;entryY=1;entryDx=0;entryDy=0;" edge="1" parent="1TzT7ke-ufF_Ez5-miPN-1" source="IiKJx6P0Wg2leFoSORLF-11" target="IiKJx6P0Wg2leFoSORLF-1">
          <mxGeometry relative="1" as="geometry">
            <mxPoint x="370" y="120" as="sourcePoint" />
            <mxPoint x="290" y="120" as="targetPoint" />
            <Array as="points" />
          </mxGeometry>
        </mxCell>
        <mxCell id="x5sgVRGJgbnu1a9LC95m-8" value="" style="endArrow=classic;html=1;rounded=0;entryX=0.5;entryY=1;entryDx=0;entryDy=0;entryPerimeter=0;" edge="1" parent="1TzT7ke-ufF_Ez5-miPN-1" source="IiKJx6P0Wg2leFoSORLF-3" target="IiKJx6P0Wg2leFoSORLF-15">
          <mxGeometry width="50" height="50" relative="1" as="geometry">
            <mxPoint x="550.0000000000002" y="85" as="sourcePoint" />
            <mxPoint x="630.0000000000002" y="85" as="targetPoint" />
          </mxGeometry>
        </mxCell>
        <mxCell id="x5sgVRGJgbnu1a9LC95m-9" value="" style="html=1;verticalAlign=bottom;endArrow=open;dashed=1;endSize=8;exitX=0.855;exitY=1;exitDx=0;exitDy=-4.35;entryX=0.75;entryY=0;entryDx=0;entryDy=0;exitPerimeter=0;" edge="1" parent="1TzT7ke-ufF_Ez5-miPN-1" source="IiKJx6P0Wg2leFoSORLF-15" target="IiKJx6P0Wg2leFoSORLF-3">
          <mxGeometry relative="1" as="geometry">
            <mxPoint x="628" y="104.01999999999998" as="sourcePoint" />
            <mxPoint x="549.9999999999998" y="102.5" as="targetPoint" />
            <Array as="points" />
          </mxGeometry>
        </mxCell>
        <mxCell id="x5sgVRGJgbnu1a9LC95m-10" value="" style="endArrow=classic;html=1;rounded=0;exitX=0.25;exitY=1;exitDx=0;exitDy=0;entryX=0.145;entryY=0;entryDx=0;entryDy=4.35;entryPerimeter=0;" edge="1" parent="1TzT7ke-ufF_Ez5-miPN-1" source="IiKJx6P0Wg2leFoSORLF-11" target="IiKJx6P0Wg2leFoSORLF-10">
          <mxGeometry width="50" height="50" relative="1" as="geometry">
            <mxPoint x="110" y="340" as="sourcePoint" />
            <mxPoint x="155" y="480.0000000000001" as="targetPoint" />
          </mxGeometry>
        </mxCell>
        <mxCell id="x5sgVRGJgbnu1a9LC95m-11" value="" style="html=1;verticalAlign=bottom;endArrow=open;dashed=1;endSize=8;exitX=0.5;exitY=0;exitDx=0;exitDy=0;entryX=0.75;entryY=1;entryDx=0;entryDy=0;exitPerimeter=0;" edge="1" parent="1TzT7ke-ufF_Ez5-miPN-1" source="IiKJx6P0Wg2leFoSORLF-10" target="IiKJx6P0Wg2leFoSORLF-11">
          <mxGeometry relative="1" as="geometry">
            <mxPoint x="600" y="580.0000000000001" as="sourcePoint" />
            <mxPoint x="570" y="440" as="targetPoint" />
            <Array as="points" />
          </mxGeometry>
        </mxCell>
        <mxCell id="x5sgVRGJgbnu1a9LC95m-12" value="&lt;p style=&quot;margin: 0px ; margin-top: 6px ; text-align: center&quot;&gt;&lt;b&gt;Interfaz HACIA instituciones&lt;/b&gt;&lt;/p&gt;&lt;hr&gt;&lt;p style=&quot;margin: 0px ; margin-left: 8px&quot;&gt;+ Sincronizar(usuario, institucion)&lt;/p&gt;&lt;p style=&quot;margin: 0px ; margin-left: 8px&quot;&gt;&lt;br&gt;&lt;/p&gt;&lt;p style=&quot;margin: 0px ; margin-left: 8px&quot;&gt;&lt;br&gt;&lt;/p&gt;" style="align=left;overflow=fill;html=1;dropTarget=0;" vertex="1" parent="1TzT7ke-ufF_Ez5-miPN-1">
          <mxGeometry x="560" y="390" width="240" height="60" as="geometry" />
        </mxCell>
        <mxCell id="x5sgVRGJgbnu1a9LC95m-13" value="" style="shape=component;jettyWidth=8;jettyHeight=4;" vertex="1" parent="x5sgVRGJgbnu1a9LC95m-12">
          <mxGeometry x="1" width="20" height="20" relative="1" as="geometry">
            <mxPoint x="-24" y="4" as="offset" />
          </mxGeometry>
        </mxCell>
        <mxCell id="x5sgVRGJgbnu1a9LC95m-14" value="" style="endArrow=classic;html=1;rounded=0;exitX=1;exitY=0.75;exitDx=0;exitDy=0;entryX=0;entryY=0.5;entryDx=0;entryDy=0;" edge="1" parent="1TzT7ke-ufF_Ez5-miPN-1" source="IiKJx6P0Wg2leFoSORLF-1" target="x5sgVRGJgbnu1a9LC95m-12">
          <mxGeometry width="50" height="50" relative="1" as="geometry">
            <mxPoint x="340" y="170" as="sourcePoint" />
            <mxPoint x="385" y="280.0000000000001" as="targetPoint" />
          </mxGeometry>
        </mxCell>
        <mxCell id="x5sgVRGJgbnu1a9LC95m-17" value="Institucion #N" style="verticalAlign=top;align=left;spacingTop=8;spacingLeft=2;spacingRight=12;shape=cube;size=10;direction=south;fontStyle=4;html=1;" vertex="1" parent="1TzT7ke-ufF_Ez5-miPN-1">
          <mxGeometry x="580" y="690" width="180" height="80" as="geometry" />
        </mxCell>
        <mxCell id="x5sgVRGJgbnu1a9LC95m-18" value="" style="endArrow=classic;html=1;rounded=0;exitX=0.083;exitY=1;exitDx=0;exitDy=0;entryX=0;entryY=0;entryDx=0;entryDy=170;entryPerimeter=0;exitPerimeter=0;" edge="1" parent="1TzT7ke-ufF_Ez5-miPN-1" source="x5sgVRGJgbnu1a9LC95m-12" target="x5sgVRGJgbnu1a9LC95m-17">
          <mxGeometry width="50" height="50" relative="1" as="geometry">
            <mxPoint x="540.5" y="500.0000000000001" as="sourcePoint" />
            <mxPoint x="540" y="544.3500000000001" as="targetPoint" />
          </mxGeometry>
        </mxCell>
        <mxCell id="x5sgVRGJgbnu1a9LC95m-19" value="" style="html=1;verticalAlign=bottom;endArrow=open;dashed=1;endSize=8;entryX=0.25;entryY=1;entryDx=0;entryDy=0;" edge="1" parent="1TzT7ke-ufF_Ez5-miPN-1" source="x5sgVRGJgbnu1a9LC95m-17" target="x5sgVRGJgbnu1a9LC95m-12">
          <mxGeometry relative="1" as="geometry">
            <mxPoint x="575.5" y="540" as="sourcePoint" />
            <mxPoint x="630.5" y="500.0000000000001" as="targetPoint" />
            <Array as="points" />
          </mxGeometry>
        </mxCell>
        <mxCell id="x5sgVRGJgbnu1a9LC95m-20" value="" style="html=1;verticalLabelPosition=bottom;align=center;labelBackgroundColor=#ffffff;verticalAlign=top;strokeWidth=2;strokeColor=#0080F0;shadow=0;dashed=0;shape=mxgraph.ios7.icons.clock;" vertex="1" parent="1TzT7ke-ufF_Ez5-miPN-1">
          <mxGeometry x="460" y="430" width="60" height="40" as="geometry" />
        </mxCell>
        <mxCell id="x5sgVRGJgbnu1a9LC95m-21" value="" style="endArrow=classic;html=1;rounded=0;exitX=0.981;exitY=0.746;exitDx=0;exitDy=0;entryX=0;entryY=0.75;entryDx=0;entryDy=0;exitPerimeter=0;" edge="1" parent="1TzT7ke-ufF_Ez5-miPN-1" source="x5sgVRGJgbnu1a9LC95m-20" target="x5sgVRGJgbnu1a9LC95m-12">
          <mxGeometry width="50" height="50" relative="1" as="geometry">
            <mxPoint x="690.0000000000002" y="460" as="sourcePoint" />
            <mxPoint x="640.0000000000002" y="530" as="targetPoint" />
          </mxGeometry>
        </mxCell>
        <mxCell id="ux_pTqWaz4iWNuzdBX7Z-0" value="&lt;h1&gt;&lt;span style=&quot;font-size: 12px ; font-weight: normal&quot;&gt;REST || gRPC&lt;/span&gt;&lt;br&gt;&lt;/h1&gt;" style="text;html=1;strokeColor=#d6b656;fillColor=#fff2cc;spacing=5;spacingTop=-20;whiteSpace=wrap;overflow=hidden;rounded=0;" vertex="1" parent="1TzT7ke-ufF_Ez5-miPN-1">
          <mxGeometry x="650" y="470" width="100" height="40" as="geometry" />
        </mxCell>
        <mxCell id="6RfzHPtavrh6ZCgJKw2B-0" value="&lt;h1&gt;&lt;span style=&quot;font-size: 12px ; font-weight: normal&quot;&gt;postgresql + ltree?&lt;/span&gt;&lt;br&gt;&lt;/h1&gt;" style="text;html=1;strokeColor=#d6b656;fillColor=#fff2cc;spacing=5;spacingTop=-20;whiteSpace=wrap;overflow=hidden;rounded=0;" vertex="1" parent="1TzT7ke-ufF_Ez5-miPN-1">
          <mxGeometry x="40" y="510" width="190" height="40" as="geometry" />
        </mxCell>
      </root>
    </mxGraphModel>
  </diagram>
  <diagram id="7vGv9R5QY5UXB_dx13ti" name="Servicio de almacenamiento">
    <mxGraphModel dx="978" dy="518" grid="1" gridSize="10" guides="1" tooltips="1" connect="1" arrows="1" fold="1" page="1" pageScale="1" pageWidth="850" pageHeight="1100" math="0" shadow="0">
      <root>
        <mxCell id="nPJcUBuq2-DJhHzOo7au-0" />
        <mxCell id="nPJcUBuq2-DJhHzOo7au-1" parent="nPJcUBuq2-DJhHzOo7au-0" />
        <mxCell id="nPJcUBuq2-DJhHzOo7au-2" value="&lt;p style=&quot;margin: 0px ; margin-top: 6px ; text-align: center&quot;&gt;&lt;b&gt;Interfaz para clientes&lt;/b&gt;&lt;/p&gt;&lt;hr&gt;&lt;p style=&quot;margin: 0px ; margin-left: 8px&quot;&gt;&lt;span&gt;+ Descargar archivo&lt;/span&gt;&lt;br&gt;&lt;/p&gt;&lt;p style=&quot;margin: 0px ; margin-left: 8px&quot;&gt;+ Guardar archivo&lt;/p&gt;&lt;p style=&quot;margin: 0px ; margin-left: 8px&quot;&gt;+ Borrar archivo&lt;/p&gt;" style="align=left;overflow=fill;html=1;dropTarget=0;" vertex="1" parent="nPJcUBuq2-DJhHzOo7au-1">
          <mxGeometry x="40" y="40" width="180" height="90" as="geometry" />
        </mxCell>
        <mxCell id="nPJcUBuq2-DJhHzOo7au-3" value="" style="shape=component;jettyWidth=8;jettyHeight=4;" vertex="1" parent="nPJcUBuq2-DJhHzOo7au-2">
          <mxGeometry x="1" width="20" height="20" relative="1" as="geometry">
            <mxPoint x="-24" y="4" as="offset" />
          </mxGeometry>
        </mxCell>
        <mxCell id="nPJcUBuq2-DJhHzOo7au-4" value="&lt;p style=&quot;margin: 0px ; margin-top: 6px ; text-align: center&quot;&gt;&lt;b&gt;Almacenamiento virtual&lt;/b&gt;&lt;/p&gt;&lt;hr&gt;&lt;p style=&quot;margin: 0px ; margin-left: 8px&quot;&gt;+ Obtener archivo&lt;/p&gt;&lt;p style=&quot;margin: 0px ; margin-left: 8px&quot;&gt;+ Eliminar archivo&lt;/p&gt;&lt;p style=&quot;margin: 0px ; margin-left: 8px&quot;&gt;+ Guardar archivo&lt;/p&gt;" style="align=left;overflow=fill;html=1;dropTarget=0;" vertex="1" parent="nPJcUBuq2-DJhHzOo7au-1">
          <mxGeometry x="395" y="400" width="190" height="80" as="geometry" />
        </mxCell>
        <mxCell id="nPJcUBuq2-DJhHzOo7au-5" value="" style="shape=component;jettyWidth=8;jettyHeight=4;" vertex="1" parent="nPJcUBuq2-DJhHzOo7au-4">
          <mxGeometry x="1" width="20" height="20" relative="1" as="geometry">
            <mxPoint x="-24" y="4" as="offset" />
          </mxGeometry>
        </mxCell>
        <mxCell id="nPJcUBuq2-DJhHzOo7au-6" value="&lt;p style=&quot;margin: 0px ; margin-top: 6px ; text-align: center&quot;&gt;&lt;b&gt;ACL&lt;/b&gt;&lt;/p&gt;&lt;hr&gt;&lt;p style=&quot;margin: 0px ; margin-left: 8px&quot;&gt;+ Verificar(us, op, rec)&lt;/p&gt;&lt;p style=&quot;margin: 0px ; margin-left: 8px&quot;&gt;+ Actualizar(operacion, re&lt;/p&gt;" style="align=left;overflow=fill;html=1;dropTarget=0;" vertex="1" parent="nPJcUBuq2-DJhHzOo7au-1">
          <mxGeometry x="380" y="170" width="170" height="70" as="geometry" />
        </mxCell>
        <mxCell id="nPJcUBuq2-DJhHzOo7au-7" value="" style="shape=component;jettyWidth=8;jettyHeight=4;" vertex="1" parent="nPJcUBuq2-DJhHzOo7au-6">
          <mxGeometry x="1" width="20" height="20" relative="1" as="geometry">
            <mxPoint x="-24" y="4" as="offset" />
          </mxGeometry>
        </mxCell>
        <mxCell id="YnL6YGxi9Lx15GFRse28-0" value="&lt;p style=&quot;margin: 0px ; margin-top: 6px ; text-align: center&quot;&gt;&lt;b&gt;Manejo de sesiones&lt;/b&gt;&lt;/p&gt;&lt;hr&gt;&lt;p style=&quot;margin: 0px ; margin-left: 8px&quot;&gt;+ Autenticar&lt;/p&gt;" style="align=left;overflow=fill;html=1;dropTarget=0;" vertex="1" parent="nPJcUBuq2-DJhHzOo7au-1">
          <mxGeometry x="400" y="47" width="180" height="60" as="geometry" />
        </mxCell>
        <mxCell id="YnL6YGxi9Lx15GFRse28-1" value="" style="shape=component;jettyWidth=8;jettyHeight=4;" vertex="1" parent="YnL6YGxi9Lx15GFRse28-0">
          <mxGeometry x="1" width="20" height="20" relative="1" as="geometry">
            <mxPoint x="-24" y="4" as="offset" />
          </mxGeometry>
        </mxCell>
        <mxCell id="YnL6YGxi9Lx15GFRse28-2" value="&lt;p style=&quot;margin: 0px ; margin-top: 6px ; text-align: center&quot;&gt;&lt;b&gt;Interfaz Administracion&lt;/b&gt;&lt;/p&gt;&lt;hr&gt;&lt;p style=&quot;margin: 0px ; margin-left: 8px&quot;&gt;+ Agregar usuario&lt;/p&gt;&lt;p style=&quot;margin: 0px ; margin-left: 8px&quot;&gt;+ ModificarACL(recurso)&lt;/p&gt;&lt;p style=&quot;margin: 0px ; margin-left: 8px&quot;&gt;+ Agregar almacenamiento&lt;/p&gt;&lt;p style=&quot;margin: 0px ; margin-left: 8px&quot;&gt;+ Consulta historial&lt;/p&gt;" style="align=left;overflow=fill;html=1;dropTarget=0;" vertex="1" parent="nPJcUBuq2-DJhHzOo7au-1">
          <mxGeometry x="650" y="170" width="180" height="100" as="geometry" />
        </mxCell>
        <mxCell id="YnL6YGxi9Lx15GFRse28-3" value="" style="shape=component;jettyWidth=8;jettyHeight=4;" vertex="1" parent="YnL6YGxi9Lx15GFRse28-2">
          <mxGeometry x="1" width="20" height="20" relative="1" as="geometry">
            <mxPoint x="-24" y="4" as="offset" />
          </mxGeometry>
        </mxCell>
        <mxCell id="bSQcNOyi6k29tDSMshgD-0" value="&lt;p style=&quot;margin: 0px ; margin-top: 6px ; text-align: center&quot;&gt;&lt;b&gt;Registro de operaciones&lt;/b&gt;&lt;/p&gt;&lt;hr&gt;&lt;p style=&quot;margin: 0px ; margin-left: 8px&quot;&gt;+ Asentar operacion&lt;br&gt;+ Consultar historial&lt;/p&gt;&lt;p style=&quot;margin: 0px ; margin-left: 8px&quot;&gt;&lt;br&gt;&lt;/p&gt;" style="align=left;overflow=fill;html=1;dropTarget=0;" vertex="1" parent="nPJcUBuq2-DJhHzOo7au-1">
          <mxGeometry x="640" y="400" width="200" height="70" as="geometry" />
        </mxCell>
        <mxCell id="bSQcNOyi6k29tDSMshgD-1" value="" style="shape=component;jettyWidth=8;jettyHeight=4;" vertex="1" parent="bSQcNOyi6k29tDSMshgD-0">
          <mxGeometry x="1" width="20" height="20" relative="1" as="geometry">
            <mxPoint x="-24" y="4" as="offset" />
          </mxGeometry>
        </mxCell>
        <mxCell id="bSQcNOyi6k29tDSMshgD-2" value="&lt;p style=&quot;margin: 0px ; margin-top: 6px ; text-align: center&quot;&gt;&lt;b&gt;Interfaz&amp;nbsp; para S. Indexado&lt;/b&gt;&lt;/p&gt;&lt;hr&gt;&lt;p style=&quot;margin: 0px ; margin-left: 8px&quot;&gt;+ Listar Archivos para usuario&amp;nbsp;&lt;/p&gt;&lt;p style=&quot;margin: 0px ; margin-left: 8px&quot;&gt;&lt;br&gt;&lt;/p&gt;" style="align=left;overflow=fill;html=1;dropTarget=0;" vertex="1" parent="nPJcUBuq2-DJhHzOo7au-1">
          <mxGeometry x="40" y="250" width="200" height="60" as="geometry" />
        </mxCell>
        <mxCell id="bSQcNOyi6k29tDSMshgD-3" value="" style="shape=component;jettyWidth=8;jettyHeight=4;" vertex="1" parent="bSQcNOyi6k29tDSMshgD-2">
          <mxGeometry x="1" width="20" height="20" relative="1" as="geometry">
            <mxPoint x="-24" y="4" as="offset" />
          </mxGeometry>
        </mxCell>
        <mxCell id="Co11i9q1CAaLEFKGarkt-0" value="&lt;h1&gt;&lt;span style=&quot;font-size: 12px ; font-weight: normal&quot;&gt;AS2 || SFTP &lt;br&gt;+ Auth con PK ?&lt;/span&gt;&lt;br&gt;&lt;/h1&gt;" style="text;html=1;strokeColor=#d6b656;fillColor=#fff2cc;spacing=5;spacingTop=-20;whiteSpace=wrap;overflow=hidden;rounded=0;" vertex="1" parent="nPJcUBuq2-DJhHzOo7au-1">
          <mxGeometry x="40" y="140" width="100" height="70" as="geometry" />
        </mxCell>
        <mxCell id="k4C7PoR6_HY8G7GLEgk2-0" value="&lt;h1&gt;&lt;span style=&quot;font-size: 12px ; font-weight: normal&quot;&gt;REST || gRPC&lt;/span&gt;&lt;br&gt;&lt;/h1&gt;" style="text;html=1;strokeColor=#d6b656;fillColor=#fff2cc;spacing=5;spacingTop=-20;whiteSpace=wrap;overflow=hidden;rounded=0;" vertex="1" parent="nPJcUBuq2-DJhHzOo7au-1">
          <mxGeometry x="40" y="320" width="100" height="40" as="geometry" />
        </mxCell>
        <mxCell id="k4C7PoR6_HY8G7GLEgk2-1" value="&lt;h1&gt;&lt;span style=&quot;font-size: 12px ; font-weight: normal&quot;&gt;REST / gRPC&lt;/span&gt;&lt;br&gt;&lt;/h1&gt;" style="text;html=1;strokeColor=#d6b656;fillColor=#fff2cc;spacing=5;spacingTop=-20;whiteSpace=wrap;overflow=hidden;rounded=0;" vertex="1" parent="nPJcUBuq2-DJhHzOo7au-1">
          <mxGeometry x="750" y="290" width="90" height="40" as="geometry" />
        </mxCell>
        <mxCell id="oZ9MzGhR7tYzbInDMCqL-0" value="" style="group" vertex="1" connectable="0" parent="nPJcUBuq2-DJhHzOo7au-1">
          <mxGeometry x="30" y="400" width="300" height="130" as="geometry" />
        </mxCell>
        <mxCell id="oZ9MzGhR7tYzbInDMCqL-1" value="" style="group" vertex="1" connectable="0" parent="oZ9MzGhR7tYzbInDMCqL-0">
          <mxGeometry width="300" height="130" as="geometry" />
        </mxCell>
        <mxCell id="oZ9MzGhR7tYzbInDMCqL-2" value="" style="rounded=0;whiteSpace=wrap;html=1;" vertex="1" parent="oZ9MzGhR7tYzbInDMCqL-1">
          <mxGeometry width="300" height="130" as="geometry" />
        </mxCell>
        <mxCell id="oZ9MzGhR7tYzbInDMCqL-3" value="" style="endArrow=block;startArrow=block;endFill=1;startFill=1;html=1;entryX=0;entryY=0.5;entryDx=0;entryDy=0;" edge="1" parent="oZ9MzGhR7tYzbInDMCqL-1">
          <mxGeometry width="160" relative="1" as="geometry">
            <mxPoint x="10" y="30" as="sourcePoint" />
            <mxPoint x="90" y="30" as="targetPoint" />
          </mxGeometry>
        </mxCell>
        <mxCell id="oZ9MzGhR7tYzbInDMCqL-4" value="" style="endArrow=block;endFill=1;html=1;edgeStyle=orthogonalEdgeStyle;align=left;verticalAlign=top;exitX=1;exitY=0.5;exitDx=0;exitDy=0;" edge="1" parent="oZ9MzGhR7tYzbInDMCqL-1">
          <mxGeometry x="-1" relative="1" as="geometry">
            <mxPoint x="10" y="60" as="sourcePoint" />
            <mxPoint x="90" y="60" as="targetPoint" />
          </mxGeometry>
        </mxCell>
        <mxCell id="oZ9MzGhR7tYzbInDMCqL-5" value="" style="html=1;verticalAlign=bottom;endArrow=open;dashed=1;endSize=8;" edge="1" parent="oZ9MzGhR7tYzbInDMCqL-1">
          <mxGeometry relative="1" as="geometry">
            <mxPoint x="90" y="90" as="sourcePoint" />
            <mxPoint x="10" y="90" as="targetPoint" />
          </mxGeometry>
        </mxCell>
        <mxCell id="oZ9MzGhR7tYzbInDMCqL-6" value="Respuesta" style="text;html=1;strokeColor=none;fillColor=none;align=center;verticalAlign=middle;whiteSpace=wrap;rounded=0;" vertex="1" parent="oZ9MzGhR7tYzbInDMCqL-1">
          <mxGeometry x="100" y="75" width="70" height="30" as="geometry" />
        </mxCell>
        <mxCell id="oZ9MzGhR7tYzbInDMCqL-7" value="Vinculo permanente / intercambio bidireccional de informacion" style="text;html=1;strokeColor=none;fillColor=none;align=center;verticalAlign=middle;whiteSpace=wrap;rounded=0;" vertex="1" parent="oZ9MzGhR7tYzbInDMCqL-1">
          <mxGeometry x="100" y="15" width="200" height="30" as="geometry" />
        </mxCell>
        <mxCell id="oZ9MzGhR7tYzbInDMCqL-8" value="Solicitud&amp;nbsp; / Consulta" style="text;html=1;strokeColor=none;fillColor=none;align=center;verticalAlign=middle;whiteSpace=wrap;rounded=0;" vertex="1" parent="oZ9MzGhR7tYzbInDMCqL-1">
          <mxGeometry x="100" y="45" width="120" height="30" as="geometry" />
        </mxCell>
        <mxCell id="oZ9MzGhR7tYzbInDMCqL-9" value="Almacenamiento&lt;br&gt;#1" style="shape=cylinder3;whiteSpace=wrap;html=1;boundedLbl=1;backgroundOutline=1;size=15;" vertex="1" parent="nPJcUBuq2-DJhHzOo7au-1">
          <mxGeometry x="300" y="590" width="100" height="120" as="geometry" />
        </mxCell>
        <mxCell id="oZ9MzGhR7tYzbInDMCqL-12" value="Almacenamiento&lt;br&gt;#2" style="shape=cylinder3;whiteSpace=wrap;html=1;boundedLbl=1;backgroundOutline=1;size=15;" vertex="1" parent="nPJcUBuq2-DJhHzOo7au-1">
          <mxGeometry x="440" y="590" width="100" height="120" as="geometry" />
        </mxCell>
        <mxCell id="oZ9MzGhR7tYzbInDMCqL-13" value="Almacenamiento&lt;br&gt;#N" style="shape=cylinder3;whiteSpace=wrap;html=1;boundedLbl=1;backgroundOutline=1;size=15;" vertex="1" parent="nPJcUBuq2-DJhHzOo7au-1">
          <mxGeometry x="580" y="590" width="100" height="120" as="geometry" />
        </mxCell>
        <mxCell id="_z9C2Ort9t_fcjHrq3Yn-0" value="" style="endArrow=classic;html=1;rounded=0;entryX=0;entryY=0.25;entryDx=0;entryDy=0;exitX=1;exitY=0.25;exitDx=0;exitDy=0;" edge="1" parent="nPJcUBuq2-DJhHzOo7au-1" source="nPJcUBuq2-DJhHzOo7au-2" target="YnL6YGxi9Lx15GFRse28-0">
          <mxGeometry width="50" height="50" relative="1" as="geometry">
            <mxPoint x="300" y="100" as="sourcePoint" />
            <mxPoint x="350" y="50" as="targetPoint" />
          </mxGeometry>
        </mxCell>
        <mxCell id="gD6M0sUkYJj7NXWXXVIW-0" value="" style="html=1;verticalAlign=bottom;endArrow=open;dashed=1;endSize=8;exitX=0;exitY=0.5;exitDx=0;exitDy=0;" edge="1" parent="nPJcUBuq2-DJhHzOo7au-1" source="YnL6YGxi9Lx15GFRse28-0">
          <mxGeometry relative="1" as="geometry">
            <mxPoint x="600.0000000000002" y="100" as="sourcePoint" />
            <mxPoint x="220" y="77" as="targetPoint" />
            <Array as="points" />
          </mxGeometry>
        </mxCell>
        <mxCell id="gD6M0sUkYJj7NXWXXVIW-1" value="" style="endArrow=classic;html=1;rounded=0;entryX=0.5;entryY=0;entryDx=0;entryDy=0;exitX=1;exitY=0.5;exitDx=0;exitDy=0;" edge="1" parent="nPJcUBuq2-DJhHzOo7au-1" source="nPJcUBuq2-DJhHzOo7au-2" target="nPJcUBuq2-DJhHzOo7au-6">
          <mxGeometry width="50" height="50" relative="1" as="geometry">
            <mxPoint x="260" y="120.5" as="sourcePoint" />
            <mxPoint x="440" y="120" as="targetPoint" />
          </mxGeometry>
        </mxCell>
        <mxCell id="gD6M0sUkYJj7NXWXXVIW-2" value="" style="html=1;verticalAlign=bottom;endArrow=open;dashed=1;endSize=8;exitX=0.25;exitY=0;exitDx=0;exitDy=0;entryX=1;entryY=0.75;entryDx=0;entryDy=0;" edge="1" parent="nPJcUBuq2-DJhHzOo7au-1" source="nPJcUBuq2-DJhHzOo7au-6" target="nPJcUBuq2-DJhHzOo7au-2">
          <mxGeometry relative="1" as="geometry">
            <mxPoint x="410" y="87" as="sourcePoint" />
            <mxPoint x="231.26" y="87.35000000000002" as="targetPoint" />
            <Array as="points" />
          </mxGeometry>
        </mxCell>
        <mxCell id="gD6M0sUkYJj7NXWXXVIW-4" value="" style="endArrow=classic;html=1;rounded=0;exitX=1;exitY=1;exitDx=0;exitDy=0;entryX=0.5;entryY=0;entryDx=0;entryDy=0;" edge="1" parent="nPJcUBuq2-DJhHzOo7au-1" source="nPJcUBuq2-DJhHzOo7au-2" target="nPJcUBuq2-DJhHzOo7au-4">
          <mxGeometry width="50" height="50" relative="1" as="geometry">
            <mxPoint x="290" y="190" as="sourcePoint" />
            <mxPoint x="380" y="260" as="targetPoint" />
          </mxGeometry>
        </mxCell>
        <mxCell id="gD6M0sUkYJj7NXWXXVIW-5" value="" style="html=1;verticalAlign=bottom;endArrow=open;dashed=1;endSize=8;exitX=0.25;exitY=0;exitDx=0;exitDy=0;entryX=0.75;entryY=1;entryDx=0;entryDy=0;" edge="1" parent="nPJcUBuq2-DJhHzOo7au-1" source="nPJcUBuq2-DJhHzOo7au-4" target="nPJcUBuq2-DJhHzOo7au-2">
          <mxGeometry relative="1" as="geometry">
            <mxPoint x="432.5" y="180" as="sourcePoint" />
            <mxPoint x="230" y="117.5" as="targetPoint" />
            <Array as="points" />
          </mxGeometry>
        </mxCell>
        <mxCell id="gD6M0sUkYJj7NXWXXVIW-6" value="Permisos" style="shape=cylinder3;whiteSpace=wrap;html=1;boundedLbl=1;backgroundOutline=1;size=15;" vertex="1" parent="nPJcUBuq2-DJhHzOo7au-1">
          <mxGeometry x="480" y="280" width="70" height="80" as="geometry" />
        </mxCell>
        <mxCell id="gD6M0sUkYJj7NXWXXVIW-7" value="Usuarios" style="shape=cylinder3;whiteSpace=wrap;html=1;boundedLbl=1;backgroundOutline=1;size=15;" vertex="1" parent="nPJcUBuq2-DJhHzOo7au-1">
          <mxGeometry x="690" y="40" width="70" height="80" as="geometry" />
        </mxCell>
        <mxCell id="gD6M0sUkYJj7NXWXXVIW-8" value="" style="endArrow=classic;html=1;rounded=0;exitX=0.25;exitY=1;exitDx=0;exitDy=0;entryX=0.245;entryY=0.034;entryDx=0;entryDy=0;entryPerimeter=0;" edge="1" parent="nPJcUBuq2-DJhHzOo7au-1" source="nPJcUBuq2-DJhHzOo7au-6" target="gD6M0sUkYJj7NXWXXVIW-6">
          <mxGeometry width="50" height="50" relative="1" as="geometry">
            <mxPoint x="390" y="320" as="sourcePoint" />
            <mxPoint x="440" y="270" as="targetPoint" />
          </mxGeometry>
        </mxCell>
        <mxCell id="gD6M0sUkYJj7NXWXXVIW-9" value="" style="html=1;verticalAlign=bottom;endArrow=open;dashed=1;endSize=8;exitX=0.855;exitY=0;exitDx=0;exitDy=4.35;exitPerimeter=0;entryX=0.75;entryY=1;entryDx=0;entryDy=0;" edge="1" parent="nPJcUBuq2-DJhHzOo7au-1" source="gD6M0sUkYJj7NXWXXVIW-6" target="nPJcUBuq2-DJhHzOo7au-6">
          <mxGeometry relative="1" as="geometry">
            <mxPoint x="410" y="87" as="sourcePoint" />
            <mxPoint x="230" y="87" as="targetPoint" />
            <Array as="points" />
          </mxGeometry>
        </mxCell>
        <mxCell id="gD6M0sUkYJj7NXWXXVIW-10" value="" style="endArrow=classic;html=1;rounded=0;entryX=0;entryY=0;entryDx=0;entryDy=27.5;exitX=1;exitY=0.25;exitDx=0;exitDy=0;entryPerimeter=0;" edge="1" parent="nPJcUBuq2-DJhHzOo7au-1" source="YnL6YGxi9Lx15GFRse28-0" target="gD6M0sUkYJj7NXWXXVIW-7">
          <mxGeometry width="50" height="50" relative="1" as="geometry">
            <mxPoint x="405" y="20.5" as="sourcePoint" />
            <mxPoint x="585" y="20" as="targetPoint" />
          </mxGeometry>
        </mxCell>
        <mxCell id="gD6M0sUkYJj7NXWXXVIW-11" value="" style="html=1;verticalAlign=bottom;endArrow=open;dashed=1;endSize=8;exitX=0;exitY=0;exitDx=0;exitDy=52.5;exitPerimeter=0;entryX=1;entryY=0.75;entryDx=0;entryDy=0;" edge="1" parent="nPJcUBuq2-DJhHzOo7au-1" source="gD6M0sUkYJj7NXWXXVIW-7" target="YnL6YGxi9Lx15GFRse28-0">
          <mxGeometry relative="1" as="geometry">
            <mxPoint x="590" y="130" as="sourcePoint" />
            <mxPoint x="410" y="130" as="targetPoint" />
            <Array as="points" />
          </mxGeometry>
        </mxCell>
        <mxCell id="gD6M0sUkYJj7NXWXXVIW-12" value="" style="endArrow=classic;html=1;rounded=0;entryX=0.145;entryY=1;entryDx=0;entryDy=-4.35;entryPerimeter=0;" edge="1" parent="nPJcUBuq2-DJhHzOo7au-1" source="YnL6YGxi9Lx15GFRse28-2" target="gD6M0sUkYJj7NXWXXVIW-7">
          <mxGeometry width="50" height="50" relative="1" as="geometry">
            <mxPoint x="690" y="160" as="sourcePoint" />
            <mxPoint x="640" y="170" as="targetPoint" />
          </mxGeometry>
        </mxCell>
        <mxCell id="gD6M0sUkYJj7NXWXXVIW-14" value="" style="endArrow=classic;html=1;rounded=0;entryX=1;entryY=0.25;entryDx=0;entryDy=0;" edge="1" parent="nPJcUBuq2-DJhHzOo7au-1" source="YnL6YGxi9Lx15GFRse28-2" target="nPJcUBuq2-DJhHzOo7au-6">
          <mxGeometry width="50" height="50" relative="1" as="geometry">
            <mxPoint x="730.9056061332055" y="180" as="sourcePoint" />
            <mxPoint x="710.1500000000001" y="125.64999999999998" as="targetPoint" />
          </mxGeometry>
        </mxCell>
        <mxCell id="gD6M0sUkYJj7NXWXXVIW-16" value="" style="endArrow=classic;html=1;rounded=0;exitX=0;exitY=0.75;exitDx=0;exitDy=0;" edge="1" parent="nPJcUBuq2-DJhHzOo7au-1" source="YnL6YGxi9Lx15GFRse28-2" target="nPJcUBuq2-DJhHzOo7au-4">
          <mxGeometry width="50" height="50" relative="1" as="geometry">
            <mxPoint x="660" y="214.6052631578948" as="sourcePoint" />
            <mxPoint x="560" y="197.5" as="targetPoint" />
          </mxGeometry>
        </mxCell>
        <mxCell id="gD6M0sUkYJj7NXWXXVIW-17" value="" style="endArrow=classic;html=1;rounded=0;exitX=0.25;exitY=1;exitDx=0;exitDy=0;entryX=0.25;entryY=0;entryDx=0;entryDy=0;" edge="1" parent="nPJcUBuq2-DJhHzOo7au-1" source="YnL6YGxi9Lx15GFRse28-2" target="bSQcNOyi6k29tDSMshgD-0">
          <mxGeometry width="50" height="50" relative="1" as="geometry">
            <mxPoint x="660" y="255" as="sourcePoint" />
            <mxPoint x="532.8205128205129" y="410" as="targetPoint" />
          </mxGeometry>
        </mxCell>
        <mxCell id="gD6M0sUkYJj7NXWXXVIW-18" value="" style="html=1;verticalAlign=bottom;endArrow=open;dashed=1;endSize=8;exitX=0.855;exitY=1;exitDx=0;exitDy=-4.35;exitPerimeter=0;" edge="1" parent="nPJcUBuq2-DJhHzOo7au-1" source="gD6M0sUkYJj7NXWXXVIW-7" target="YnL6YGxi9Lx15GFRse28-2">
          <mxGeometry relative="1" as="geometry">
            <mxPoint x="700" y="102.5" as="sourcePoint" />
            <mxPoint x="590" y="102" as="targetPoint" />
            <Array as="points" />
          </mxGeometry>
        </mxCell>
        <mxCell id="gD6M0sUkYJj7NXWXXVIW-19" value="" style="html=1;verticalAlign=bottom;endArrow=open;dashed=1;endSize=8;exitX=1;exitY=0.75;exitDx=0;exitDy=0;entryX=0;entryY=0.5;entryDx=0;entryDy=0;" edge="1" parent="nPJcUBuq2-DJhHzOo7au-1" source="nPJcUBuq2-DJhHzOo7au-6" target="YnL6YGxi9Lx15GFRse28-2">
          <mxGeometry relative="1" as="geometry">
            <mxPoint x="710" y="112.5" as="sourcePoint" />
            <mxPoint x="600" y="112" as="targetPoint" />
            <Array as="points" />
          </mxGeometry>
        </mxCell>
        <mxCell id="gD6M0sUkYJj7NXWXXVIW-20" value="" style="html=1;verticalAlign=bottom;endArrow=open;dashed=1;endSize=8;exitX=1;exitY=0;exitDx=0;exitDy=0;entryX=0;entryY=1;entryDx=0;entryDy=0;" edge="1" parent="nPJcUBuq2-DJhHzOo7au-1" source="nPJcUBuq2-DJhHzOo7au-4" target="YnL6YGxi9Lx15GFRse28-2">
          <mxGeometry relative="1" as="geometry">
            <mxPoint x="720" y="122.5" as="sourcePoint" />
            <mxPoint x="610" y="122" as="targetPoint" />
            <Array as="points" />
          </mxGeometry>
        </mxCell>
        <mxCell id="gD6M0sUkYJj7NXWXXVIW-21" value="" style="html=1;verticalAlign=bottom;endArrow=open;dashed=1;endSize=8;exitX=0.5;exitY=0;exitDx=0;exitDy=0;entryX=0.5;entryY=1;entryDx=0;entryDy=0;" edge="1" parent="nPJcUBuq2-DJhHzOo7au-1" source="bSQcNOyi6k29tDSMshgD-0" target="YnL6YGxi9Lx15GFRse28-2">
          <mxGeometry relative="1" as="geometry">
            <mxPoint x="730" y="132.5" as="sourcePoint" />
            <mxPoint x="620" y="132" as="targetPoint" />
            <Array as="points" />
          </mxGeometry>
        </mxCell>
        <mxCell id="gD6M0sUkYJj7NXWXXVIW-22" value="" style="endArrow=classic;html=1;rounded=0;entryX=0;entryY=0;entryDx=0;entryDy=0;exitX=1.01;exitY=0.338;exitDx=0;exitDy=0;exitPerimeter=0;" edge="1" parent="nPJcUBuq2-DJhHzOo7au-1" source="bSQcNOyi6k29tDSMshgD-2" target="nPJcUBuq2-DJhHzOo7au-4">
          <mxGeometry width="50" height="50" relative="1" as="geometry">
            <mxPoint x="280" y="380" as="sourcePoint" />
            <mxPoint x="330" y="330" as="targetPoint" />
          </mxGeometry>
        </mxCell>
        <mxCell id="gD6M0sUkYJj7NXWXXVIW-23" value="" style="html=1;verticalAlign=bottom;endArrow=open;dashed=1;endSize=8;exitX=0;exitY=0.25;exitDx=0;exitDy=0;entryX=1;entryY=0.75;entryDx=0;entryDy=0;" edge="1" parent="nPJcUBuq2-DJhHzOo7au-1" source="nPJcUBuq2-DJhHzOo7au-4" target="bSQcNOyi6k29tDSMshgD-2">
          <mxGeometry relative="1" as="geometry">
            <mxPoint x="595" y="410" as="sourcePoint" />
            <mxPoint x="660" y="280" as="targetPoint" />
            <Array as="points" />
          </mxGeometry>
        </mxCell>
        <mxCell id="gD6M0sUkYJj7NXWXXVIW-24" value="" style="endArrow=classic;html=1;rounded=0;exitX=0.25;exitY=1;exitDx=0;exitDy=0;entryX=0.5;entryY=0;entryDx=0;entryDy=0;entryPerimeter=0;" edge="1" parent="nPJcUBuq2-DJhHzOo7au-1" source="nPJcUBuq2-DJhHzOo7au-4" target="oZ9MzGhR7tYzbInDMCqL-9">
          <mxGeometry width="50" height="50" relative="1" as="geometry">
            <mxPoint x="490" y="560" as="sourcePoint" />
            <mxPoint x="540" y="510" as="targetPoint" />
          </mxGeometry>
        </mxCell>
        <mxCell id="gD6M0sUkYJj7NXWXXVIW-25" value="" style="endArrow=classic;html=1;rounded=0;exitX=0.5;exitY=1;exitDx=0;exitDy=0;entryX=0.5;entryY=0;entryDx=0;entryDy=0;entryPerimeter=0;" edge="1" parent="nPJcUBuq2-DJhHzOo7au-1" source="nPJcUBuq2-DJhHzOo7au-4" target="oZ9MzGhR7tYzbInDMCqL-12">
          <mxGeometry width="50" height="50" relative="1" as="geometry">
            <mxPoint x="457.44000000000005" y="489.27999999999986" as="sourcePoint" />
            <mxPoint x="360" y="600" as="targetPoint" />
          </mxGeometry>
        </mxCell>
        <mxCell id="gD6M0sUkYJj7NXWXXVIW-26" value="" style="endArrow=classic;html=1;rounded=0;exitX=0.75;exitY=1;exitDx=0;exitDy=0;entryX=0.5;entryY=0;entryDx=0;entryDy=0;entryPerimeter=0;" edge="1" parent="nPJcUBuq2-DJhHzOo7au-1" source="nPJcUBuq2-DJhHzOo7au-4" target="oZ9MzGhR7tYzbInDMCqL-13">
          <mxGeometry width="50" height="50" relative="1" as="geometry">
            <mxPoint x="500" y="490" as="sourcePoint" />
            <mxPoint x="500" y="600" as="targetPoint" />
          </mxGeometry>
        </mxCell>
        <mxCell id="gD6M0sUkYJj7NXWXXVIW-27" value="Historial" style="shape=cylinder3;whiteSpace=wrap;html=1;boundedLbl=1;backgroundOutline=1;size=15;" vertex="1" parent="nPJcUBuq2-DJhHzOo7au-1">
          <mxGeometry x="730" y="510" width="70" height="80" as="geometry" />
        </mxCell>
        <mxCell id="gD6M0sUkYJj7NXWXXVIW-28" value="" style="endArrow=classic;html=1;rounded=0;exitX=0.5;exitY=1;exitDx=0;exitDy=0;" edge="1" parent="nPJcUBuq2-DJhHzOo7au-1" source="bSQcNOyi6k29tDSMshgD-0" target="gD6M0sUkYJj7NXWXXVIW-27">
          <mxGeometry width="50" height="50" relative="1" as="geometry">
            <mxPoint x="547.5" y="490" as="sourcePoint" />
            <mxPoint x="640" y="600" as="targetPoint" />
          </mxGeometry>
        </mxCell>
        <mxCell id="-UV98v3SVT5AqoXSiOhp-0" value="" style="html=1;verticalAlign=bottom;endArrow=open;dashed=1;endSize=8;exitX=0.855;exitY=0;exitDx=0;exitDy=4.35;exitPerimeter=0;entryX=0.75;entryY=1;entryDx=0;entryDy=0;" edge="1" parent="nPJcUBuq2-DJhHzOo7au-1" source="gD6M0sUkYJj7NXWXXVIW-27" target="bSQcNOyi6k29tDSMshgD-0">
          <mxGeometry relative="1" as="geometry">
            <mxPoint x="829.9999999999999" y="644.3499999999999" as="sourcePoint" />
            <mxPoint x="797.65" y="600" as="targetPoint" />
            <Array as="points" />
          </mxGeometry>
        </mxCell>
      </root>
    </mxGraphModel>
  </diagram>
</mxfile>
